<svg width="633" height="125" viewBox="0 0 633 125" fill="none" xmlns="http://www.w3.org/2000/svg">
  <!-- Chart bars with brand green -->
  <rect x="64" y="62" width="28" height="48" rx="4" fill="#16a34a"/>
  <rect x="98" y="42" width="28" height="68" rx="4" fill="#16a34a"/>
  <rect x="132" y="22" width="28" height="88" rx="4" fill="#16a34a"/>

  <!-- Arrow curve (gray) -->
  <path d="M 45 95 Q 80 70, 120 45 Q 140 30, 160 15" stroke="#64748b" stroke-width="8" fill="none" stroke-linecap="round" stroke-linejoin="round"/>

  <!-- Arrow head (gray) -->
  <path d="M 150 8 L 170 5 L 165 22 Z" fill="#64748b"/>

  <!-- Text: REVNU -->
  <!-- R -->
  <path d="M 210 85 L 210 25 L 245 25 Q 260 25 260 40 Q 260 50 250 52 L 265 85 L 245 85 L 232 55 L 228 55 L 228 85 Z M 228 42 L 242 42 Q 245 42 245 38 Q 245 35 242 35 L 228 35 Z" fill="#1e293b"/>

  <!-- E -->
  <path d="M 280 85 L 280 25 L 325 25 L 325 38 L 298 38 L 298 48 L 320 48 L 320 60 L 298 60 L 298 72 L 325 72 L 325 85 Z" fill="#1e293b"/>

  <!-- V -->
  <path d="M 340 25 L 362 25 L 375 70 L 388 25 L 410 25 L 388 85 L 362 85 Z" fill="#1e293b"/>

  <!-- N -->
  <path d="M 425 85 L 425 25 L 443 25 L 465 65 L 465 25 L 483 25 L 483 85 L 465 85 L 443 45 L 443 85 Z" fill="#16a34a"/>

  <!-- U -->
  <path d="M 498 25 L 498 65 Q 498 75 510 75 Q 522 75 522 65 L 522 25 L 540 25 L 540 65 Q 540 88 510 88 Q 480 88 480 65 L 480 25 Z" fill="#16a34a"/>
</svg>
